;TYPE=NON_PLATED
;Layer: NPTH_Through
;EasyEDA Pro v2.2.40.8, 2025-09-22 01:06:07
;Gerber Generator version 0.3
M48
METRIC,LZ,0000.00000
;Hole size 1 = 0.80000 METRIC
T01C0.80000
;Hole size 2 = 0.95001 METRIC
T02C0.95001
;Hole size 3 = 3.00000 METRIC
T03C3.00000
%
G05
G90
T01
X-53.848Y41.148
X-60.071Y41.148
X-32.00405Y35.30595
X-32.00405Y37.84595
X-32.00405Y32.76595
X-32.00405Y22.09795
X-32.00405Y24.63795
X-32.00405Y19.55795
X-32.00405Y8.88995
X-32.00405Y11.42995
X-32.00405Y6.34995
X-38.354Y39.116
X-38.354Y31.496
X-24.892Y39.116
X-24.892Y31.496
X-38.354Y25.908
X-38.354Y18.288
X-24.892Y25.908
X-24.892Y18.288
X-38.354Y12.7
X-38.354Y5.08
X-24.892Y12.7
X-24.892Y5.08
X-5.58764Y11.72583
X-8.12764Y11.72583
X-15.58762Y11.72581
X-18.28764Y11.72583
X-5.58775Y30.22592
X-8.12775Y30.22592
X-15.58773Y30.2259
X-18.28775Y30.22592
X-64.135Y46.22803
X-64.135Y43.68803
X-64.135Y41.14803
X-64.135Y38.60805
X-64.135Y36.06805
X-64.135Y33.52805
X-64.135Y30.98805
X-64.135Y28.44805
X-64.135Y25.90808
X-48.89497Y25.90808
X-48.89497Y28.44805
X-48.89497Y30.98805
X-48.89497Y33.52805
X-48.89497Y36.06805
X-48.89497Y38.60805
X-48.89497Y41.14803
X-48.89497Y43.68803
X-48.89497Y46.22803
X-74.42213Y26.543
X-74.42187Y24.003
X-74.42187Y21.463
X-74.422Y12.46607
X-74.422Y14.96598
X-35.62718Y46.228
X-33.12693Y46.228
X-30.62719Y46.228
X-28.12694Y46.228
X-74.422Y32.69907
X-74.422Y35.19907
X-74.422Y37.69906
X-74.422Y40.19906
T02
X-12.80867Y39.85118G85X-15.20864Y39.85118
X-9.35899Y41.55139G85X-9.35899Y43.95136
X-15.20947Y46.0012G85X-12.80947Y46.0012
T03
X-74.0Y46.0
X-74.0Y4.0
X-4.0Y46.0
X-4.0Y4.0
M30